<svg xmlns="http://www.w3.org/2000/svg" width="512" height="512" viewBox="0 0 512 512">
  <defs>
    <linearGradient id="cyberpunk-bg" x1="0%" y1="0%" x2="100%" y2="100%">
      <stop offset="0%" stop-color="#0a0e17" />
      <stop offset="100%" stop-color="#1a1f2e" />
    </linearGradient>
    <filter id="glow" x="-20%" y="-20%" width="140%" height="140%">
      <feGaussianBlur stdDeviation="8" result="blur" />
      <feComposite in="SourceGraphic" in2="blur" operator="over" />
    </filter>
  </defs>
  <rect width="512" height="512" rx="50" fill="url(#cyberpunk-bg)" />
  <rect x="40" y="40" width="432" height="432" rx="20" fill="#1a1f2e" stroke="#252a3a" stroke-width="2" />
  <circle cx="80" cy="80" r="15" fill="#ff5f56" /> 
  <circle cx="120" cy="80" r="15" fill="#ffbd2e" />
  <circle cx="160" cy="80" r="15" fill="#27c93f" />
  <path d="M100 180 L160 240 L100 300" stroke="#ff7edb" stroke-width="12" stroke-linecap="round" stroke-linejoin="round" fill="none" filter="url(#glow)" />
  <line x1="190" y1="320" x2="320" y2="320" stroke="#00ffc8" stroke-width="12" stroke-linecap="round" filter="url(#glow)" />
  
  <!-- Cyberpunk grid lines -->
  <line x1="40" y1="120" x2="472" y2="120" stroke="#252a3a" stroke-width="1" />
  <line x1="40" y1="360" x2="472" y2="360" stroke="#252a3a" stroke-width="1" />
  <line x1="200" y1="40" x2="200" y2="472" stroke="#252a3a" stroke-width="1" />
  <line x1="350" y1="40" x2="350" y2="472" stroke="#252a3a" stroke-width="1" />
  
  <!-- Decorative elements -->
  <rect x="380" y="140" width="60" height="10" rx="5" fill="#ffcc00" filter="url(#glow)" />
  <rect x="380" y="160" width="40" height="10" rx="5" fill="#ffcc00" filter="url(#glow)" />
  <rect x="380" y="180" width="50" height="10" rx="5" fill="#ffcc00" filter="url(#glow)" />
</svg>
